<svg version="1.1" id="Layer_1" xmlns="http://www.w3.org/2000/svg" xmlns:xlink="http://www.w3.org/1999/xlink" x="0px" y="0px"
	 width="100%" viewBox="0 0 1024 1024" enable-background="new 0 0 1024 1024" xml:space="preserve">
<path fill="#FEFFFF" opacity="1.000000" stroke="none" 
	d="
M475.000000,1025.000000 
	C316.666656,1025.000000 158.833328,1025.000000 1.000000,1025.000000 
	C1.000000,683.666687 1.000000,342.333344 1.000000,1.000000 
	C342.333344,1.000000 683.666687,1.000000 1025.000000,1.000000 
	C1025.000000,342.333344 1025.000000,683.666687 1025.000000,1025.000000 
	C841.833313,1025.000000 658.666687,1025.000000 475.000000,1025.000000 
M775.602783,777.216248 
	C775.523132,776.156189 775.443420,775.096191 775.551392,773.113647 
	C775.368958,768.409119 775.186523,763.704529 774.782532,758.280212 
	C772.671692,758.062134 770.561035,757.654907 768.450073,757.653687 
	C712.131470,757.620422 655.812805,757.579712 599.494568,757.721191 
	C594.844849,757.732910 593.665222,756.736816 594.119324,751.839905 
	C594.912903,743.282410 594.569580,734.619385 594.925903,725.119934 
	C594.774658,722.406738 594.623474,719.693481 594.738098,716.085632 
	C594.344299,707.307434 594.066162,698.521973 593.521545,689.753174 
	C593.049988,682.159790 592.276062,674.585205 591.834412,666.249878 
	C591.686035,665.502563 591.537720,664.755249 591.631042,663.170044 
	C591.327209,660.483948 591.023315,657.797791 590.832581,654.330444 
	C590.727295,653.557373 590.622070,652.784363 590.692444,651.206055 
	C590.351257,649.183899 590.010132,647.161682 589.880188,644.292358 
	C589.678711,642.861328 589.477234,641.430359 589.532837,639.164917 
	C589.098877,634.197327 588.654236,629.230652 588.232666,624.262024 
	C585.394165,590.806763 581.869812,557.390564 579.953186,523.882507 
	C578.529358,498.990356 578.920410,473.975800 582.924011,449.189972 
	C586.008850,430.091797 590.792236,411.495209 599.217529,394.066833 
	C612.551331,396.782898 625.772522,400.532440 639.242371,401.998962 
	C666.943176,405.014832 692.938965,399.222809 716.134338,383.173065 
	C738.735962,367.534119 753.497925,345.656921 764.987549,321.191650 
	C773.541260,302.977905 781.987061,284.700684 791.125244,266.780273 
	C795.086548,259.011841 800.667847,252.069565 805.746887,244.399246 
	C804.297424,243.845810 802.978210,243.238190 801.599731,242.830963 
	C769.275635,233.281647 736.273865,229.977341 702.806213,233.570816 
	C680.501404,235.965698 658.917908,241.666779 639.270020,253.038177 
	C604.251343,273.305634 582.999939,302.807190 579.602600,343.806671 
	C578.917114,352.078430 579.651489,360.467804 579.731262,368.802948 
	C580.271179,368.870575 580.811096,368.938171 581.351013,369.005798 
	C582.324951,367.730194 583.333923,366.479645 584.267822,365.175323 
	C606.396362,334.270050 635.094910,311.346008 669.412292,295.331299 
	C673.376099,293.481537 677.761108,292.534210 681.630310,291.750641 
	C677.026123,294.797211 672.421997,297.843811 667.196777,301.209564 
	C661.059326,305.661499 654.921875,310.113434 648.130737,314.808228 
	C642.725891,319.474670 637.321106,324.141083 631.294189,329.078552 
	C628.443481,332.013794 625.592712,334.949005 622.159302,338.183777 
	C597.846252,363.247040 580.525391,392.466705 570.380981,426.140503 
	C568.704041,423.921326 567.729736,421.856842 566.715393,419.812225 
	C557.066650,400.362793 544.206482,383.464966 526.757751,369.362823 
	C523.543213,367.072296 520.262756,364.867920 517.131653,362.468475 
	C513.574036,359.742218 510.150024,356.841583 507.447266,353.928772 
	C530.585815,363.322968 549.762146,377.738220 564.288208,400.217590 
	C564.609314,396.988495 564.854126,395.418732 564.909119,393.842346 
	C566.027344,361.816864 547.491394,334.968933 517.066284,324.002075 
	C491.762238,314.881104 466.106049,315.607910 440.246216,320.650085 
	C435.469269,321.581482 430.800507,323.067749 425.067596,324.562317 
	C438.470428,339.487030 444.167053,357.318176 452.702362,373.626129 
	C459.210297,386.060394 466.983948,397.793793 478.967529,405.828125 
	C502.029358,421.289795 526.419983,421.061371 551.968018,412.067047 
	C553.785522,416.158142 555.909302,420.143616 557.363281,424.360107 
	C561.796509,437.215271 565.693665,449.769470 563.194946,464.130585 
	C557.249634,498.300873 558.900574,532.913940 560.841125,567.313354 
	C563.091248,607.200012 566.476868,647.016663 565.586853,687.021484 
	C565.513306,690.327515 565.698975,693.639282 565.453674,697.682739 
	C565.500977,698.465454 565.548279,699.248108 565.305298,700.856873 
	C563.603210,713.239746 561.901062,725.622559 559.827637,738.559753 
	C559.632507,739.402466 559.437378,740.245239 558.791443,741.612610 
	C557.985596,744.074524 557.179749,746.536438 555.997314,749.461365 
	C555.962463,749.851013 555.927612,750.240723 555.525574,750.972473 
	C555.309265,751.254395 555.234375,751.569824 554.799438,752.394531 
	C554.173340,753.854370 553.547180,755.314209 552.043457,757.127563 
	C549.234863,757.308350 546.426208,757.647217 543.617615,757.647095 
	C437.100006,757.642639 330.582428,757.600769 224.064835,757.635376 
	C222.514282,757.635864 220.964035,758.536011 219.074799,759.894897 
	C219.074799,770.084839 219.074799,780.274780 219.074799,790.340942 
	C226.533173,790.340942 233.271133,790.340942 240.643127,790.668701 
	C241.091858,790.558411 241.540573,790.448059 242.844467,790.682373 
	C245.901581,790.565308 248.958679,790.448242 252.792267,790.693481 
	C254.188873,790.573242 255.585480,790.453003 257.857239,790.680664 
	C284.767242,790.734253 311.677277,790.791931 338.587311,790.821533 
	C339.394073,790.822388 340.201141,790.529480 341.715271,790.721924 
	C342.473602,790.606567 343.231964,790.491211 344.867218,790.717529 
	C386.438965,790.759521 428.010712,790.804138 469.582458,790.824158 
	C470.390747,790.824524 471.199158,790.535645 472.716095,790.726807 
	C473.474396,790.611206 474.232697,790.495667 475.868439,790.719849 
	C476.531708,790.764465 477.194916,790.847839 477.858215,790.848145 
	C526.267395,790.868286 574.676636,790.885559 623.085815,790.876526 
	C624.394348,790.876282 625.702881,790.585632 627.795166,790.774902 
	C629.192139,790.652710 630.589111,790.530518 632.865784,790.745056 
	C638.359253,790.789978 643.853333,790.908325 649.346069,790.864807 
	C660.984253,790.772705 672.621765,790.596191 684.769348,791.007996 
	C688.087158,790.821716 691.404968,790.635376 695.638123,790.765503 
	C699.762146,790.656494 703.886169,790.547546 708.764954,790.779114 
	C709.838928,790.659668 710.912903,790.540222 712.866638,790.757812 
	C727.246826,790.647705 741.627075,790.537659 756.505920,790.747375 
	C757.053589,790.617432 757.601196,790.487488 758.761902,790.545044 
	C759.178589,790.476562 759.595215,790.408081 760.737610,790.646973 
	C763.154724,790.566956 765.571838,790.486877 768.826233,790.743042 
	C771.036804,790.743042 773.247314,790.743042 775.993591,790.743042 
	C775.780701,786.068726 775.596924,782.033447 775.602783,777.216248 
M736.452759,732.960510 
	C739.523376,732.960510 742.594055,732.960510 745.870972,732.960510 
	C745.870972,723.194763 745.872437,714.371094 745.870728,705.547424 
	C745.853577,619.057129 745.844299,532.566833 745.806946,446.076569 
	C745.802612,436.030640 742.611938,432.840027 732.810669,432.845001 
	C701.647522,432.860870 670.484314,432.885315 639.321167,432.920410 
	C630.874695,432.929901 627.773865,436.138031 627.777710,444.754333 
	C627.819336,538.910461 627.859314,633.066589 627.899536,727.222717 
	C627.900330,728.988892 627.899597,730.755066 627.899597,732.959045 
	C664.214905,732.959045 699.841248,732.959045 736.452759,732.960510 
M407.044922,713.499573 
	C407.044922,719.909485 407.044922,726.319397 407.044922,732.644287 
	C447.015198,732.644287 486.096283,732.644287 525.765930,732.644287 
	C525.765930,730.008545 525.765137,727.711914 525.766113,725.415344 
	C525.797302,652.092346 525.834351,578.769287 525.852966,505.446289 
	C525.855225,496.387665 521.812012,492.385712 512.749878,492.387054 
	C482.087555,492.391632 451.425262,492.407684 420.762939,492.425629 
	C410.172638,492.431824 406.994537,495.561890 406.996399,506.028748 
	C407.008667,574.852417 407.029572,643.676147 407.044922,713.499573 
M356.047302,595.313171 
	C324.556854,595.336365 293.066437,595.373169 261.575989,595.374939 
	C251.112381,595.375488 248.380508,598.056885 248.376236,608.745178 
	C248.360413,648.232971 248.370148,687.720703 248.389847,727.208496 
	C248.390732,728.984131 248.582718,730.759644 248.699310,732.770142 
	C288.285187,732.770142 327.357605,732.770142 366.589539,732.770142 
	C366.740387,731.882996 366.942200,731.250916 366.941833,730.618958 
	C366.917450,688.798706 366.911041,646.978271 366.796814,605.158264 
	C366.781464,599.533875 363.182281,596.213867 356.047302,595.313171 
z"/>
<path fill="#32A195" opacity="1.000000" stroke="none" 
	d="
M735.960205,732.959778 
	C699.841248,732.959045 664.214905,732.959045 627.899597,732.959045 
	C627.899597,730.755066 627.900330,728.988892 627.899536,727.222717 
	C627.859314,633.066589 627.819336,538.910461 627.777710,444.754333 
	C627.773865,436.138031 630.874695,432.929901 639.321167,432.920410 
	C670.484314,432.885315 701.647522,432.860870 732.810669,432.845001 
	C742.611938,432.840027 745.802612,436.030640 745.806946,446.076569 
	C745.844299,532.566833 745.853577,619.057129 745.870728,705.547424 
	C745.872437,714.371094 745.870972,723.194763 745.870972,732.960510 
	C742.594055,732.960510 739.523376,732.960510 735.960205,732.959778 
z"/>
<path fill="#A5CC46" opacity="1.000000" stroke="none" 
	d="
M407.046295,712.999695 
	C407.029572,643.676147 407.008667,574.852417 406.996399,506.028748 
	C406.994537,495.561890 410.172638,492.431824 420.762939,492.425629 
	C451.425262,492.407684 482.087555,492.391632 512.749878,492.387054 
	C521.812012,492.385712 525.855225,496.387665 525.852966,505.446289 
	C525.834351,578.769287 525.797302,652.092346 525.766113,725.415344 
	C525.765137,727.711914 525.765930,730.008545 525.765930,732.644287 
	C486.096283,732.644287 447.015198,732.644287 407.044922,732.644287 
	C407.044922,726.319397 407.044922,719.909485 407.046295,712.999695 
z"/>
<path fill="#A5CD47" opacity="1.000000" stroke="none" 
	d="
M681.950806,291.168488 
	C677.761108,292.534210 673.376099,293.481537 669.412292,295.331299 
	C635.094910,311.346008 606.396362,334.270050 584.267822,365.175323 
	C583.333923,366.479645 582.324951,367.730194 581.351013,369.005798 
	C580.811096,368.938171 580.271179,368.870575 579.731262,368.802948 
	C579.651489,360.467804 578.917114,352.078430 579.602600,343.806671 
	C582.999939,302.807190 604.251343,273.305634 639.270020,253.038177 
	C658.917908,241.666779 680.501404,235.965698 702.806213,233.570816 
	C736.273865,229.977341 769.275635,233.281647 801.599731,242.830963 
	C802.978210,243.238190 804.297424,243.845810 805.746887,244.399246 
	C800.667847,252.069565 795.086548,259.011841 791.125244,266.780273 
	C781.987061,284.700684 773.541260,302.977905 764.987549,321.191650 
	C753.497925,345.656921 738.735962,367.534119 716.134338,383.173065 
	C692.938965,399.222809 666.943176,405.014832 639.242371,401.998962 
	C625.772522,400.532440 612.551331,396.782898 598.962769,393.535797 
	C603.675659,383.639374 608.303894,374.072113 613.716553,364.971405 
	C618.183533,357.460663 623.578857,350.502075 628.848511,343.188232 
	C631.453125,340.399445 633.771912,337.721191 636.379272,334.882874 
	C641.430725,329.780945 646.193665,324.839142 651.266724,319.780212 
	C657.780334,313.846222 663.983704,308.029358 670.538269,302.174927 
	C676.177734,298.515594 681.466064,294.893860 686.754333,291.272125 
	C686.519043,290.876068 686.283691,290.479980 686.048401,290.083923 
	C684.682556,290.445435 683.316650,290.806976 681.950806,291.168488 
z"/>
<path fill="#37A095" opacity="1.000000" stroke="none" 
	d="
M627.011414,790.430420 
	C625.702881,790.585632 624.394348,790.876282 623.085815,790.876526 
	C574.676636,790.885559 526.267395,790.868286 477.858215,790.848145 
	C477.194916,790.847839 476.531708,790.764465 475.342957,790.293945 
	C473.880798,790.039185 472.944153,790.210449 472.007507,790.381714 
	C471.199158,790.535645 470.390747,790.824524 469.582458,790.824158 
	C428.010712,790.804138 386.438965,790.759521 344.341919,790.291260 
	C342.880432,790.034607 341.944275,790.204102 341.008087,790.373596 
	C340.201141,790.529480 339.394073,790.822388 338.587311,790.821533 
	C311.677277,790.791931 284.767242,790.734253 257.297211,790.227173 
	C255.163391,789.959473 253.589600,790.145325 252.015793,790.331177 
	C248.958679,790.448242 245.901581,790.565308 242.347504,790.296265 
	C241.236740,790.053772 240.622925,790.197388 240.009109,790.340942 
	C233.271133,790.340942 226.533173,790.340942 219.074799,790.340942 
	C219.074799,780.274780 219.074799,770.084839 219.682129,759.451904 
	C328.964661,759.007568 437.639862,759.006348 546.315063,759.003723 
	C547.812744,759.003723 549.374695,759.238647 550.783875,758.880615 
	C551.620667,758.667969 552.216736,757.508057 552.921021,756.774048 
	C553.547180,755.314209 554.173340,753.854370 555.228943,751.988403 
	C555.845825,751.291992 555.923889,750.974670 555.892761,750.630371 
	C555.927612,750.240723 555.962463,749.851013 556.501892,749.141357 
	C557.751709,746.243591 558.496948,743.665771 559.242188,741.087952 
	C559.437378,740.245239 559.632507,739.402466 560.411072,738.281372 
	C564.187927,737.450378 568.484619,735.320190 570.369568,736.638428 
	C576.204956,740.719543 584.269897,743.160583 584.193298,752.919983 
	C584.138672,759.878296 587.753479,761.481201 594.693665,759.458557 
	C596.500305,758.932007 599.443909,759.455566 600.753418,760.683044 
	C603.287659,763.058472 612.768311,764.503784 614.327393,761.574036 
	C615.976746,758.474670 618.216125,759.020386 620.581543,759.019409 
	C672.055725,758.998718 723.529968,759.001587 775.004150,759.000000 
	C775.186523,763.704529 775.368958,768.409119 775.061646,773.537720 
	C771.827576,772.599731 770.104370,773.225769 768.802856,776.201111 
	C767.853455,778.371643 766.487000,780.957092 764.571106,781.979431 
	C760.926636,783.923950 759.422058,786.394836 760.011902,790.339600 
	C759.595215,790.408081 759.178589,790.476562 758.333618,790.191833 
	C757.272583,790.034973 756.639954,790.231262 756.007263,790.427612 
	C741.627075,790.537659 727.246826,790.647705 712.325195,790.313477 
	C710.525879,790.058960 709.268005,790.248779 708.010193,790.438599 
	C703.886169,790.547546 699.762146,790.656494 694.854553,790.441772 
	C690.800537,790.230103 687.530029,790.342224 684.259583,790.454285 
	C672.621765,790.596191 660.984253,790.772705 649.346069,790.864807 
	C643.853333,790.908325 638.359253,790.789978 632.310669,790.286682 
	C630.174194,790.028992 628.592773,790.229675 627.011414,790.430420 
z"/>
<path fill="#A5CC46" opacity="1.000000" stroke="none" 
	d="
M356.486847,595.315186 
	C363.182281,596.213867 366.781464,599.533875 366.796814,605.158264 
	C366.911041,646.978271 366.917450,688.798706 366.941833,730.618958 
	C366.942200,731.250916 366.740387,731.882996 366.589539,732.770142 
	C327.357605,732.770142 288.285187,732.770142 248.699310,732.770142 
	C248.582718,730.759644 248.390732,728.984131 248.389847,727.208496 
	C248.370148,687.720703 248.360413,648.232971 248.376236,608.745178 
	C248.380508,598.056885 251.112381,595.375488 261.575989,595.374939 
	C293.066437,595.373169 324.556854,595.336365 356.486847,595.315186 
z"/>
<path fill="#A6CB48" opacity="1.000000" stroke="none" 
	d="
M551.500549,411.562012 
	C526.419983,421.061371 502.029358,421.289795 478.967529,405.828125 
	C466.983948,397.793793 459.210297,386.060394 452.702362,373.626129 
	C444.167053,357.318176 438.470428,339.487030 425.067596,324.562317 
	C430.800507,323.067749 435.469269,321.581482 440.246216,320.650085 
	C466.106049,315.607910 491.762238,314.881104 517.066284,324.002075 
	C547.491394,334.968933 566.027344,361.816864 564.909119,393.842346 
	C564.854126,395.418732 564.609314,396.988495 564.288208,400.217590 
	C549.762146,377.738220 530.585815,363.322968 506.720917,353.916138 
	C503.949493,353.177979 501.904419,352.452454 499.859375,351.726959 
	C499.720520,352.040924 499.581696,352.354858 499.442871,352.668823 
	C507.954163,359.473846 516.465515,366.278839 525.118347,373.360718 
	C526.458679,374.773682 527.657410,375.909790 528.942017,377.353210 
	C529.658691,378.176636 530.289551,378.692749 531.009338,379.529022 
	C539.201660,389.582031 546.814514,399.630524 551.500549,411.562012 
M497.400818,351.467712 
	C497.400818,351.467712 497.581024,351.564453 497.581024,351.564453 
	C497.581024,351.564453 497.552277,351.381317 497.400818,351.467712 
z"/>
<path fill="#39A397" opacity="1.000000" stroke="none" 
	d="
M528.856201,377.045898 
	C527.657410,375.909790 526.458679,374.773682 525.134033,372.992188 
	C525.698608,371.551361 526.389038,370.755920 527.079468,369.960510 
	C544.206482,383.464966 557.066650,400.362793 566.715393,419.812225 
	C567.729736,421.856842 568.704041,423.921326 570.380981,426.140503 
	C580.525391,392.466705 597.846252,363.247040 622.810303,338.102692 
	C625.161743,339.780701 626.862305,341.539795 628.562866,343.298828 
	C623.578857,350.502075 618.183533,357.460663 613.716553,364.971405 
	C608.303894,374.072113 603.675659,383.639374 598.600830,393.354736 
	C590.792236,411.495209 586.008850,430.091797 582.924011,449.189972 
	C578.920410,473.975800 578.529358,498.990356 579.953186,523.882507 
	C581.869812,557.390564 585.394165,590.806763 588.232666,624.262024 
	C588.654236,629.230652 589.098877,634.197327 589.091675,639.598755 
	C584.914612,644.085754 580.835754,647.893311 577.651367,652.341248 
	C576.692993,653.679932 577.651794,657.117004 578.722290,659.042542 
	C581.627869,664.269043 583.188721,669.516296 581.385925,675.741699 
	C583.538147,678.335327 587.995911,680.570129 584.234131,685.308533 
	C584.008545,685.592712 584.846802,687.189880 585.539062,687.643311 
	C587.369873,688.842712 589.392456,689.749329 592.575317,691.422607 
	C591.727417,684.626160 590.848999,679.126282 590.447144,673.591736 
	C590.290649,671.435425 591.207703,669.201111 591.635742,667.002319 
	C592.276062,674.585205 593.049988,682.159790 593.521545,689.753174 
	C594.066162,698.521973 594.344299,707.307434 594.305664,716.431396 
	C593.026733,714.705688 591.799316,714.001953 589.323486,713.297241 
	C582.235657,711.279785 580.044373,704.942261 579.031189,698.292725 
	C578.329956,693.690613 576.318115,692.033447 571.804016,692.549683 
	C570.397583,692.710449 568.957336,692.574646 567.697937,692.574646 
	C567.014221,694.121033 566.389160,695.534729 565.764160,696.948425 
	C565.698975,693.639282 565.513306,690.327515 565.586853,687.021484 
	C566.476868,647.016663 563.091248,607.200012 560.841125,567.313354 
	C558.900574,532.913940 557.249634,498.300873 563.194946,464.130585 
	C565.693665,449.769470 561.796509,437.215271 557.363281,424.360107 
	C555.909302,420.143616 553.785522,416.158142 551.734253,411.814514 
	C546.814514,399.630524 539.201660,389.582031 531.000244,379.173737 
	C530.220276,378.014191 529.538269,377.530029 528.856201,377.045898 
z"/>
<path fill="#39A397" opacity="1.000000" stroke="none" 
	d="
M774.893311,758.640137 
	C723.529968,759.001587 672.055725,758.998718 620.581543,759.019409 
	C618.216125,759.020386 615.976746,758.474670 614.327393,761.574036 
	C612.768311,764.503784 603.287659,763.058472 600.753418,760.683044 
	C599.443909,759.455566 596.500305,758.932007 594.693665,759.458557 
	C587.753479,761.481201 584.138672,759.878296 584.193298,752.919983 
	C584.269897,743.160583 576.204956,740.719543 570.369568,736.638428 
	C568.484619,735.320190 564.187927,737.450378 560.596741,738.004272 
	C561.901062,725.622559 563.603210,713.239746 565.782593,700.593323 
	C566.504822,701.918823 566.992004,703.514893 566.946655,705.095581 
	C566.834290,709.012512 566.851196,712.270996 571.286987,714.589722 
	C574.627686,716.335999 577.294067,719.723389 579.702759,722.814941 
	C582.918091,726.941772 585.456970,731.590576 588.576965,735.799744 
	C589.614258,737.199097 591.547302,737.934326 594.186096,739.733704 
	C593.895325,735.224243 593.583191,732.137878 593.561523,729.049500 
	C593.554443,728.035889 594.300781,727.017029 594.702637,726.000610 
	C594.569580,734.619385 594.912903,743.282410 594.119324,751.839905 
	C593.665222,756.736816 594.844849,757.732910 599.494568,757.721191 
	C655.812805,757.579712 712.131470,757.620422 768.450073,757.653687 
	C770.561035,757.654907 772.671692,758.062134 774.893311,758.640137 
z"/>
<path fill="#39A397" opacity="1.000000" stroke="none" 
	d="
M552.482300,756.950806 
	C552.216736,757.508057 551.620667,758.667969 550.783875,758.880615 
	C549.374695,759.238647 547.812744,759.003723 546.315063,759.003723 
	C437.639862,759.006348 328.964661,759.007568 219.851532,759.012634 
	C220.964035,758.536011 222.514282,757.635864 224.064835,757.635376 
	C330.582428,757.600769 437.100006,757.642639 543.617615,757.647095 
	C546.426208,757.647217 549.234863,757.308350 552.482300,756.950806 
z"/>
<path fill="#329E93" opacity="1.000000" stroke="none" 
	d="
M594.814209,725.560303 
	C594.300781,727.017029 593.554443,728.035889 593.561523,729.049500 
	C593.583191,732.137878 593.895325,735.224243 594.186096,739.733704 
	C591.547302,737.934326 589.614258,737.199097 588.576965,735.799744 
	C585.456970,731.590576 582.918091,726.941772 579.702759,722.814941 
	C577.294067,719.723389 574.627686,716.335999 571.286987,714.589722 
	C566.851196,712.270996 566.834290,709.012512 566.946655,705.095581 
	C566.992004,703.514893 566.504822,701.918823 565.927734,700.180298 
	C565.548279,699.248108 565.500977,698.465454 565.608887,697.315552 
	C566.389160,695.534729 567.014221,694.121033 567.697937,692.574646 
	C568.957336,692.574646 570.397583,692.710449 571.804016,692.549683 
	C576.318115,692.033447 578.329956,693.690613 579.031189,698.292725 
	C580.044373,704.942261 582.235657,711.279785 589.323486,713.297241 
	C591.799316,714.001953 593.026733,714.705688 594.172791,716.878723 
	C594.623474,719.693481 594.774658,722.406738 594.814209,725.560303 
z"/>
<path fill="#319F92" opacity="1.000000" stroke="none" 
	d="
M591.735107,666.626099 
	C591.207703,669.201111 590.290649,671.435425 590.447144,673.591736 
	C590.848999,679.126282 591.727417,684.626160 592.575317,691.422607 
	C589.392456,689.749329 587.369873,688.842712 585.539062,687.643311 
	C584.846802,687.189880 584.008545,685.592712 584.234131,685.308533 
	C587.995911,680.570129 583.538147,678.335327 581.385925,675.741699 
	C583.188721,669.516296 581.627869,664.269043 578.722290,659.042542 
	C577.651794,657.117004 576.692993,653.679932 577.651367,652.341248 
	C580.835754,647.893311 584.914612,644.085754 588.963135,640.015991 
	C589.477234,641.430359 589.678711,642.861328 589.558105,644.997314 
	C589.662964,647.805298 590.089905,649.908264 590.516846,652.011292 
	C590.622070,652.784363 590.727295,653.557373 590.543335,655.019165 
	C590.632568,658.474548 591.010986,661.241272 591.389404,664.007935 
	C591.537720,664.755249 591.686035,665.502563 591.735107,666.626099 
z"/>
<path fill="#39A397" opacity="1.000000" stroke="none" 
	d="
M650.956543,319.897339 
	C646.193665,324.839142 641.430725,329.780945 635.987549,334.862000 
	C634.176941,332.936707 633.046631,330.872131 631.916321,328.807556 
	C637.321106,324.141083 642.725891,319.474670 648.648193,315.023834 
	C649.762695,316.792053 650.359619,318.344696 650.956543,319.897339 
z"/>
<path fill="#49A899" opacity="1.000000" stroke="none" 
	d="
M651.266724,319.780212 
	C650.359619,318.344696 649.762695,316.792053 648.975098,314.902405 
	C654.921875,310.113434 661.059326,305.661499 667.856689,301.119873 
	C669.073364,301.424255 669.630249,301.818359 670.187073,302.212463 
	C663.983704,308.029358 657.780334,313.846222 651.266724,319.780212 
z"/>
<path fill="#39A397" opacity="1.000000" stroke="none" 
	d="
M760.374756,790.493286 
	C759.422058,786.394836 760.926636,783.923950 764.571106,781.979431 
	C766.487000,780.957092 767.853455,778.371643 768.802856,776.201111 
	C770.104370,773.225769 771.827576,772.599731 774.967896,773.998901 
	C775.443420,775.096191 775.523132,776.156189 775.120850,777.639038 
	C771.862671,781.875366 766.516541,784.304565 767.988953,790.406799 
	C765.571838,790.486877 763.154724,790.566956 760.374756,790.493286 
z"/>
<path fill="#53A99D" opacity="1.000000" stroke="none" 
	d="
M526.918579,369.661682 
	C526.389038,370.755920 525.698608,371.551361 524.992493,372.715302 
	C516.465515,366.278839 507.954163,359.473846 499.442871,352.668823 
	C499.581696,352.354858 499.720520,352.040924 499.859375,351.726959 
	C501.904419,352.452454 503.949493,353.177979 506.331238,353.960144 
	C510.150024,356.841583 513.574036,359.742218 517.131653,362.468475 
	C520.262756,364.867920 523.543213,367.072296 526.918579,369.661682 
z"/>
<path fill="#49A899" opacity="1.000000" stroke="none" 
	d="
M631.605225,328.943054 
	C633.046631,330.872131 634.176941,332.936707 635.698975,335.022125 
	C633.771912,337.721191 631.453125,340.399445 628.848572,343.188263 
	C626.862305,341.539795 625.161743,339.780701 623.101624,337.952911 
	C625.592712,334.949005 628.443481,332.013794 631.605225,328.943054 
z"/>
<path fill="#37A095" opacity="1.000000" stroke="none" 
	d="
M768.407593,790.574951 
	C766.516541,784.304565 771.862671,781.875366 775.026001,778.029968 
	C775.596924,782.033447 775.780701,786.068726 775.993591,790.743042 
	C773.247314,790.743042 771.036804,790.743042 768.407593,790.574951 
z"/>
<path fill="#6BB4A5" opacity="1.000000" stroke="none" 
	d="
M670.538269,302.174896 
	C669.630249,301.818359 669.073364,301.424255 668.167175,300.960266 
	C672.421997,297.843811 677.026123,294.797211 681.790527,291.459564 
	C683.316650,290.806976 684.682556,290.445435 686.048401,290.083923 
	C686.283691,290.479980 686.519043,290.876068 686.754333,291.272125 
	C681.466064,294.893860 676.177734,298.515594 670.538269,302.174896 
z"/>
<path fill="#39A397" opacity="1.000000" stroke="none" 
	d="
M684.514465,790.731140 
	C687.530029,790.342224 690.800537,790.230103 694.396851,790.283508 
	C691.404968,790.635376 688.087158,790.821716 684.514465,790.731140 
z"/>
<path fill="#39A397" opacity="1.000000" stroke="none" 
	d="
M591.510254,663.588989 
	C591.010986,661.241272 590.632568,658.474548 590.486755,655.409790 
	C591.023315,657.797791 591.327209,660.483948 591.510254,663.588989 
z"/>
<path fill="#39A397" opacity="1.000000" stroke="none" 
	d="
M559.016846,741.350281 
	C558.496948,743.665771 557.751709,746.243591 556.690186,748.909912 
	C557.179749,746.536438 557.985596,744.074524 559.016846,741.350281 
z"/>
<path fill="#39A397" opacity="1.000000" stroke="none" 
	d="
M590.604614,651.608643 
	C590.089905,649.908264 589.662964,647.805298 589.452515,645.420898 
	C590.010132,647.161682 590.351257,649.183899 590.604614,651.608643 
z"/>
<path fill="#39A397" opacity="1.000000" stroke="none" 
	d="
M252.404022,790.512329 
	C253.589600,790.145325 255.163391,789.959473 256.859619,790.053223 
	C255.585480,790.453003 254.188873,790.573242 252.404022,790.512329 
z"/>
<path fill="#39A397" opacity="1.000000" stroke="none" 
	d="
M627.403320,790.602661 
	C628.592773,790.229675 630.174194,790.028992 631.870850,790.118286 
	C630.589111,790.530518 629.192139,790.652710 627.403320,790.602661 
z"/>
<path fill="#39A397" opacity="1.000000" stroke="none" 
	d="
M708.387573,790.608887 
	C709.268005,790.248779 710.525879,790.058960 711.885254,790.144958 
	C710.912903,790.540222 709.838928,790.659668 708.387573,790.608887 
z"/>
<path fill="#39A397" opacity="1.000000" stroke="none" 
	d="
M341.361694,790.547729 
	C341.944275,790.204102 342.880432,790.034607 343.903473,790.120422 
	C343.231964,790.491211 342.473602,790.606567 341.361694,790.547729 
z"/>
<path fill="#39A397" opacity="1.000000" stroke="none" 
	d="
M472.361816,790.554260 
	C472.944153,790.210449 473.880798,790.039185 474.904205,790.124023 
	C474.232697,790.495667 473.474396,790.611206 472.361816,790.554260 
z"/>
<path fill="#39A397" opacity="1.000000" stroke="none" 
	d="
M240.326111,790.504822 
	C240.622925,790.197388 241.236740,790.053772 241.919922,790.123962 
	C241.540573,790.448059 241.091858,790.558411 240.326111,790.504822 
z"/>
<path fill="#39A397" opacity="1.000000" stroke="none" 
	d="
M756.256592,790.587524 
	C756.639954,790.231262 757.272583,790.034973 758.027100,790.098022 
	C757.601196,790.487488 757.053589,790.617432 756.256592,790.587524 
z"/>
<path fill="#39A397" opacity="1.000000" stroke="none" 
	d="
M555.709167,750.801392 
	C555.923889,750.974670 555.845825,751.291992 555.479736,751.750488 
	C555.234375,751.569824 555.309265,751.254395 555.709167,750.801392 
z"/>
<path fill="#53A99D" opacity="1.000000" stroke="none" 
	d="
M528.942017,377.353210 
	C529.538269,377.530029 530.220276,378.014191 530.911377,378.853607 
	C530.289551,378.692749 529.658691,378.176636 528.942017,377.353210 
z"/>
<path fill="#53A99D" opacity="1.000000" stroke="none" 
	d="
M497.476562,351.424500 
	C497.552277,351.381317 497.581024,351.564453 497.581024,351.564453 
	C497.581024,351.564453 497.400818,351.467712 497.476562,351.424500 
z"/>
</svg>