<?xml version="1.0" encoding="UTF-8"?>
<svg version="1.1" xmlns="http://www.w3.org/2000/svg" width="2001" height="491">
<path d="M0 0 C18.39519219 17.300348 28.78688917 40.20683516 30.3515625 65.390625 C30.44157515 67.55481308 30.44157515 67.55481308 31.5625 69.5 C33.0475 69.005 33.0475 69.005 34.5625 68.5 C34.70945312 66.79457031 34.70945312 66.79457031 34.859375 65.0546875 C37.17254108 40.36479631 45.33246375 20.55201963 62.5625 2.5 C63.35333984 1.59701172 63.35333984 1.59701172 64.16015625 0.67578125 C80.73140475 -17.50597222 108.75103131 -27.0488194 132.5625 -29.5 C133.50609375 -29.60957031 134.4496875 -29.71914062 135.421875 -29.83203125 C174.13039864 -33.75519243 215.15958725 -26.27857506 245.89868164 -1.44189453 C275.86008038 23.3876098 288.67324728 61.83425004 292.28897476 99.57024002 C293.32108907 114.39871259 292.92942864 129.34403367 292.86668181 144.19858813 C292.8477039 149.4622191 292.84614818 154.72585731 292.84260559 159.98951721 C292.8333463 169.91943693 292.80881693 179.84925548 292.77855712 189.779131 C292.74482065 201.09986996 292.72847911 212.4206142 292.71347082 223.74139106 C292.68226065 246.99431641 292.62962151 270.24715249 292.5625 293.5 C289.65242414 294.95503793 287.1000034 294.6353584 283.84960938 294.64526367 C283.1600264 294.64862228 282.47044342 294.6519809 281.75996399 294.65544128 C279.47537446 294.66495796 277.19085813 294.66689462 274.90625 294.66796875 C273.32206186 294.67118037 271.73787403 294.67454437 270.15368652 294.67805481 C266.83145459 294.68404754 263.50924868 294.68589452 260.18701172 294.68530273 C255.92290259 294.685201 251.65895955 294.6988644 247.39488983 294.71607494 C244.12301868 294.72717341 240.85118798 294.72922262 237.57929993 294.72869301 C236.00677415 294.72987595 234.43424743 294.73431523 232.86174011 294.74202538 C230.66617054 294.75178389 228.47096562 294.7489641 226.27539062 294.74291992 C225.02455688 294.74434494 223.77372314 294.74576996 222.48498535 294.74723816 C219.5625 294.5 219.5625 294.5 217.5625 292.5 C217.30916691 289.51426125 217.30916691 289.51426125 217.30421448 285.59854126 C217.30053877 284.87998785 217.29686307 284.16143445 217.29307598 283.4211067 C217.28305357 281.00023049 217.28725541 278.5795821 217.29125977 276.15869141 C217.28687451 274.42731989 217.28157309 272.69595049 217.27542114 270.96458435 C217.26389391 267.22630141 217.25845964 263.48807536 217.25753975 259.74977493 C217.25559931 253.82119858 217.23754136 247.89273921 217.21678162 241.96420288 C217.16756274 227.22093928 217.13683917 212.47764342 217.11547852 197.73431396 C217.09888827 186.30859692 217.07584281 174.88297914 217.03245777 163.4573282 C217.01085895 157.58372662 217.0026072 151.71031436 217.00485051 145.83667588 C217.0031628 142.14820469 216.98898562 138.45985284 216.97163773 134.77142525 C216.96611949 133.08342306 216.96547602 131.39539524 216.97057533 129.70739174 C216.99502723 120.65009965 216.52709489 111.84243204 215.21324158 102.87216187 C215.0366428 101.6577213 215.0366428 101.6577213 214.85647637 100.41874659 C211.91818217 82.04944577 202.85819962 64.81267972 187.6875 53.6875 C169.4976417 41.77580543 147.63210605 39.49166923 126.4621582 43.58081055 C109.44383773 47.50842153 94.27307192 56.778149 84.5625 71.5 C76.12951028 85.61609149 71.39885349 100.72333853 71.42446899 117.27571106 C71.42164771 118.02757098 71.41882643 118.77943091 71.41591966 119.55407447 C71.4076307 122.0566495 71.4062404 124.55917998 71.40478516 127.06176758 C71.40011308 128.86248905 71.39496887 130.66320934 71.38938904 132.46392822 C71.37813941 136.33256226 71.36969052 140.20118874 71.36326981 144.06983376 C71.3525705 150.18287129 71.33232393 156.2958539 71.31015015 162.40885925 C71.24827958 179.78841661 71.19411935 197.1679694 71.16113281 214.54760742 C71.14282218 224.15295373 71.11393967 233.75820677 71.0731281 243.36348456 C71.05201437 248.44622782 71.03659451 253.5288534 71.03432083 258.61164284 C71.03218284 263.38466016 71.01640113 268.15743161 70.98993111 272.93037415 C70.98270665 274.68560114 70.98065225 276.44085782 70.98403358 278.19609642 C70.98790061 280.58409526 70.97356556 282.97129791 70.95449829 285.35920715 C70.96002799 286.06065017 70.96555768 286.76209319 70.97125494 287.48479205 C70.94446754 289.41547871 70.94446754 289.41547871 70.5625 292.5 C66.88974946 294.94850036 65.11524716 294.74791778 60.73608398 294.74291992 C59.70149048 294.74576744 59.70149048 294.74576744 58.64599609 294.74867249 C56.36674626 294.75237645 54.08781525 294.74168238 51.80859375 294.73046875 C50.22583555 294.7292767 48.64307663 294.72882384 47.06031799 294.7290802 C43.74402434 294.72751604 40.42783874 294.7192309 37.11157227 294.70581055 C32.85537785 294.68880695 28.59930206 294.68499665 24.34307766 294.68575573 C21.075494 294.68548416 17.80793641 294.68000531 14.5403614 294.67275429 C12.97063456 294.66956688 11.40090476 294.66760004 9.83117485 294.66686058 C7.64057226 294.66469856 5.45009686 294.65595777 3.25952148 294.64526367 C2.01170395 294.64145187 0.76388641 294.63764008 -0.52174377 294.63371277 C-3.4375 294.5 -3.4375 294.5 -5.4375 293.5 C-5.44246522 292.16292039 -5.44246522 292.16292039 -5.44753075 290.79882908 C-5.52897788 269.04521686 -5.62114022 247.29167262 -5.72502708 225.53815556 C-5.7750126 215.01804602 -5.82145637 204.49794373 -5.859375 193.9777832 C-5.89245868 184.80158241 -5.93237855 175.6254403 -5.98029006 166.44930452 C-6.00539335 161.59683709 -6.02722105 156.74440776 -6.04084396 151.89189339 C-6.05381275 147.31102205 -6.07602148 142.73028252 -6.10488319 138.14948463 C-6.11384466 136.48119292 -6.11962191 134.81288005 -6.12171364 133.14456558 C-6.16055624 106.83615754 -9.26438558 80.73289079 -28.61328125 61.16015625 C-45.09758415 45.63344771 -65.45797739 41.50454464 -87.41796875 42.1171875 C-104.5170626 42.96852801 -120.24352539 49.26946174 -132.4375 61.5 C-144.93986853 76.8411645 -151.60608216 95.47345763 -151.57553101 115.3069458 C-151.57976293 116.43980267 -151.57976293 116.43980267 -151.58408034 117.59554553 C-151.59236988 120.10960607 -151.59375966 122.62362226 -151.59521484 125.13769531 C-151.59988691 126.94664635 -151.60503113 128.75559622 -151.61061096 130.56454468 C-151.62186122 134.45118346 -151.63030985 138.33781471 -151.63673019 142.22446442 C-151.64743066 148.36718079 -151.66767793 154.50984251 -151.68984985 160.65252686 C-151.75171525 178.11663326 -151.80586729 195.58073524 -151.83886719 213.04492188 C-151.85718483 222.69678922 -151.88607704 232.34856387 -151.9268719 242.00036311 C-151.94797519 247.10717136 -151.96340401 252.21386269 -151.96567917 257.32071686 C-151.96781907 262.11753908 -151.98362055 266.9141171 -152.01006889 271.71086502 C-152.01728624 273.47373485 -152.01935114 275.23663418 -152.01596642 276.99951553 C-152.01209206 279.4002988 -152.02645873 281.80029419 -152.04550171 284.20098877 C-152.03997201 284.90340989 -152.03444232 285.60583102 -152.02874506 286.32953763 C-152.06773039 289.16352689 -152.13683901 291.06448708 -153.77182865 293.43279934 C-156.50217633 295.18214134 -159.06400587 294.87392753 -162.26391602 294.87231445 C-162.95364502 294.87596512 -163.64337402 294.87961578 -164.35400391 294.88337708 C-166.63338862 294.89148195 -168.91206236 294.87787512 -171.19140625 294.86328125 C-172.77416483 294.86276269 -174.35692406 294.86328023 -175.93968201 294.86479187 C-179.25602844 294.86470215 -182.57213174 294.85427303 -185.88842773 294.83618164 C-190.14469621 294.81347584 -194.40060995 294.81295371 -198.65692234 294.81969929 C-201.92452665 294.82303625 -205.19204969 294.81641468 -208.4596386 294.80657005 C-210.02936312 294.80271442 -211.59909669 294.80157134 -213.16882515 294.8031559 C-215.35955245 294.80352567 -217.54982009 294.79093245 -219.74047852 294.7746582 C-220.98829605 294.77005081 -222.23611359 294.76544342 -223.52174377 294.76069641 C-226.4375 294.5 -226.4375 294.5 -228.4375 292.5 C-228.68918228 289.47020245 -228.68918228 289.47020245 -228.69146729 285.49137878 C-228.69458727 284.76128029 -228.69770725 284.03118179 -228.70092177 283.2789591 C-228.70893338 280.81894855 -228.70256542 278.35918255 -228.69628906 275.89916992 C-228.69899797 274.13986567 -228.70255834 272.38056255 -228.70690918 270.6212616 C-228.71606006 265.82670642 -228.71247452 261.03223695 -228.70615101 256.2376802 C-228.70108984 251.2079557 -228.70578419 246.17823858 -228.70892334 241.14851379 C-228.712569 232.68029467 -228.70775483 224.21211033 -228.69824219 215.74389648 C-228.68742316 206.00126925 -228.69083271 196.25872615 -228.701895 186.51610106 C-228.71103095 178.130232 -228.7122206 169.74438801 -228.70701766 161.35851556 C-228.70392374 156.36061597 -228.70341531 151.36275559 -228.71009064 146.36485863 C-228.76516404 98.60232927 -228.76516404 98.60232927 -224.1875 76.8125 C-223.97134033 75.76779541 -223.75518066 74.72309082 -223.5324707 73.64672852 C-218.13634162 48.5436667 -207.4677407 25.06798472 -189.4375 6.5 C-188.42816406 5.38044922 -188.42816406 5.38044922 -187.3984375 4.23828125 C-142.74399974 -43.67743568 -47.12366003 -42.55268745 0 0 Z " fill="#FFFFFF" transform="translate(1264.4375,132.5)"/>
<path d="M0 0 C0.689729 -0.00365067 1.37945801 -0.00730133 2.09008789 -0.01106262 C4.36947261 -0.0191675 6.64814634 -0.00556067 8.92749023 0.0090332 C10.51024882 0.00955176 12.09300805 0.00903423 13.67576599 0.00752258 C16.99211242 0.0076123 20.30821572 0.01804142 23.62451172 0.03613281 C27.8807802 0.05883861 32.13669393 0.05936074 36.39300632 0.05261517 C39.66061063 0.04927821 42.92813367 0.05589977 46.19572258 0.0657444 C47.76544711 0.06960003 49.33518067 0.07074312 50.90490913 0.06915855 C53.09563644 0.06878879 55.28590407 0.081382 57.4765625 0.09765625 C58.72438004 0.10226364 59.97219757 0.10687103 61.25782776 0.11161804 C64.17358398 0.37231445 64.17358398 0.37231445 66.17358398 2.37231445 C66.41967964 4.18014717 66.41967964 4.18014717 66.41409302 6.40921021 C66.41684235 7.25337494 66.41959167 8.09753967 66.42242432 8.96728516 C66.41163849 10.35911011 66.41163849 10.35911011 66.40063477 11.77905273 C66.40092682 12.75470184 66.40121887 13.73035095 66.40151978 14.73556519 C66.40012266 17.97134186 66.38454349 21.20689034 66.36889648 24.44262695 C66.36516771 26.68179193 66.3623201 28.92095854 66.36032104 31.16012573 C66.35267391 37.06207765 66.33301614 42.9639316 66.31091309 48.86584473 C66.29047791 54.8849149 66.28132432 60.90400086 66.27124023 66.9230957 C66.24977127 78.73954507 66.21562231 90.55592162 66.17358398 102.37231445 C67.0440623 102.36954907 67.0440623 102.36954907 67.93212605 102.36672783 C82.14230749 102.32229442 96.35248267 102.28933545 110.56271839 102.26869011 C117.43506703 102.25843732 124.30736891 102.24449385 131.1796875 102.22143555 C137.825725 102.19914737 144.47172711 102.18770801 151.11780357 102.18255997 C153.63920539 102.17889648 156.1606049 102.1717438 158.68198586 102.16085434 C176.55467839 102.08681356 194.4277417 102.17890965 211.86108398 106.62231445 C212.7320874 106.83919922 213.60309082 107.05608398 214.50048828 107.27954102 C246.68324381 115.56917265 275.44812277 135.43610954 293.36108398 163.68481445 C302.75248804 179.68285041 309.5060735 195.91077893 313.92358398 213.93481445 C314.12234131 214.7362085 314.32109863 215.53760254 314.52587891 216.36328125 C317.86016371 230.70799475 318.58328814 245.02265911 318.54858398 259.68481445 C318.54776825 260.99067001 318.54776825 260.99067001 318.54693604 262.32290649 C318.41681841 307.88853685 305.27870996 351.0834367 272.92358398 384.05981445 C241.3159936 415.27230995 198.09256019 426.69727634 154.67358398 427.62231445 C106.59473714 426.59799814 63.38923501 412.15017299 29.58764648 377.0793457 C-6.70443932 338.30497039 -10.15715679 287.51592325 -10.12799859 237.31635499 C-10.12691635 233.61984391 -10.13184198 229.92334954 -10.13660401 226.22684211 C-10.14761081 217.51791407 -10.14818192 208.80902924 -10.14208984 200.10009766 C-10.1360086 191.12464951 -10.14848545 182.14935647 -10.16965991 173.17393476 C-10.18724336 165.43506939 -10.19328385 157.69625365 -10.19002217 149.95736903 C-10.18820958 145.34819737 -10.19084642 140.73913735 -10.20473671 136.1299839 C-10.21726313 131.81478127 -10.2154207 127.49982426 -10.20232582 123.18462563 C-10.19995203 121.60072244 -10.20272332 120.01680216 -10.21094894 118.43291855 C-10.22134716 116.27597912 -10.21337399 114.1198755 -10.20063782 111.96296692 C-10.20080556 110.75541654 -10.2009733 109.54786615 -10.20114613 108.30372334 C-9.82641602 105.37231445 -9.82641602 105.37231445 -8.43709373 103.48531914 C-6.27100086 101.98851348 -4.79468749 101.9751063 -2.17138672 101.93994141 C-1.23063797 101.92014725 -0.28988922 101.90035309 0.67936707 101.87995911 C1.69195084 101.87356918 2.70453461 101.86717926 3.74780273 101.8605957 C5.30625664 101.8336689 5.30625664 101.8336689 6.89619446 101.80619812 C10.21778289 101.75197403 13.53922664 101.71816017 16.86108398 101.68481445 C19.11175521 101.65165212 21.36240732 101.61716348 23.61303711 101.58129883 C29.13308967 101.49624077 34.65316067 101.42794222 40.17358398 101.37231445 C39.31345703 101.06068359 38.45333008 100.74905273 37.56713867 100.42797852 C18.15205749 93.21354188 4.54541349 81.01406438 -4.36547852 62.10668945 C-9.58767663 49.46347298 -10.17910281 36.67293059 -10.14208984 23.17553711 C-10.13887503 20.71596045 -10.16267768 18.25752924 -10.18774414 15.7980957 C-10.19001257 14.22648262 -10.19072276 12.65486634 -10.18969727 11.08325195 C-10.19890701 10.35206146 -10.20811676 9.62087097 -10.21760559 8.86752319 C-10.17205717 3.90550735 -10.17205717 3.90550735 -8.72979736 1.6806488 C-5.85457336 -0.29570466 -3.46127267 -0.00174483 0 0 Z M66.17358398 175.37231445 C66.06220564 178.42849068 66.01617673 181.46226929 66.01245117 184.51928711 C66.00748627 185.48044937 66.00252136 186.44161163 65.99740601 187.43190002 C65.98272527 190.63339951 65.97596801 193.83484923 65.97045898 197.03637695 C65.96470664 199.26345827 65.95894892 201.49053956 65.95318604 203.71762085 C65.94265538 208.40362784 65.93682814 213.0896176 65.93334961 217.77563477 C65.92790007 223.74581184 65.90395735 229.71575676 65.87537766 235.68586159 C65.85662641 240.29648468 65.85153879 244.90705366 65.85001373 249.51771164 C65.84700816 251.71586737 65.83905151 253.91402264 65.82582855 256.11214066 C65.65989675 285.85098574 72.28697447 309.91816075 93.51342773 331.7824707 C112.11915085 349.36291897 135.32064184 356.3365934 160.46264648 355.72387695 C182.93315059 354.68170142 204.25015437 344.13244419 219.64428711 327.81323242 C236.73855427 308.58505775 244.46141325 284.1517625 243.32592773 258.57495117 C241.90879004 238.08550199 234.41055125 220.00865054 221.17358398 204.37231445 C220.7159668 203.7690332 220.25834961 203.16575195 219.78686523 202.54418945 C207.42951648 186.66147093 186.54438099 177.61135795 167.17358398 174.37231445 C159.29720413 173.5855144 151.38304026 173.76042512 143.47827148 173.84887695 C141.26580331 173.85568461 139.05332779 173.86039579 136.84085083 173.86312866 C131.08396296 173.87639617 125.32771215 173.92050197 119.57104492 173.97070312 C114.84285607 174.00642343 110.11472702 174.01923921 105.38642693 174.03112221 C99.75033592 174.04584981 94.11431135 174.07105962 88.47827148 174.09887695 C87.40243679 174.10378773 86.3266021 174.1086985 85.21816635 174.11375809 C82.20046322 174.12994013 79.18291476 174.15333004 76.1652832 174.17944336 C75.26365448 174.18370331 74.36202576 174.18796326 73.43307495 174.19235229 C69.48684502 173.84302739 69.48684502 173.84302739 66.17358398 175.37231445 Z " fill="#FFFFFF" transform="translate(1611.826416015625,-0.372314453125)"/>
<path d="M0 0 C1.12190735 -0.00696899 2.2438147 -0.01393799 3.39971924 -0.02111816 C7.0113096 -0.03844951 10.62274475 -0.04484048 14.234375 -0.046875 C15.46679932 -0.04788208 16.69922363 -0.04888916 17.96899414 -0.04992676 C36.83525573 -0.0394912 55.29331617 0.50220588 73.984375 3.203125 C75.50949707 3.41195312 75.50949707 3.41195312 77.06542969 3.625 C94.16104691 6.02516465 113.5316951 9.20084434 128.984375 17.203125 C130.04318419 20.37955256 130.11749116 22.65090619 130.12963867 25.98803711 C130.13920845 27.77019875 130.13920845 27.77019875 130.14897156 29.58836365 C130.15064079 31.51495567 130.15064079 31.51495567 130.15234375 33.48046875 C130.15567215 34.79849991 130.15900055 36.11653107 130.16242981 37.47450256 C130.16841589 40.26450418 130.17027023 43.05447484 130.16967773 45.84448242 C130.1695761 49.4167203 130.18323207 52.98875949 130.20044994 56.56095028 C130.21425202 59.97162619 130.21365886 63.38226526 130.21484375 66.79296875 C130.22202927 68.0753392 130.22921478 69.35770966 130.23661804 70.67893982 C130.23354141 71.87019974 130.23046478 73.06145966 130.22729492 74.28881836 C130.22871994 75.33678085 130.23014496 76.38474335 130.23161316 77.46446228 C129.98327464 80.21531368 129.4001597 81.85930715 127.984375 84.203125 C123.32805551 83.62576487 119.01873387 82.7346997 114.5390625 81.34765625 C113.311875 80.97527832 112.0846875 80.60290039 110.8203125 80.21923828 C110.17545898 80.02267639 109.53060547 79.8261145 108.86621094 79.62359619 C85.66862431 72.5958845 62.12031998 67.66160365 37.984375 65.203125 C37.08807373 65.1088623 36.19177246 65.01459961 35.26831055 64.91748047 C26.49356771 64.08292815 17.72843575 63.96113182 8.921875 63.953125 C8.15012939 63.95211792 7.37838379 63.95111084 6.58325195 63.95007324 C-11.82713283 63.96629805 -33.4798591 64.17521863 -48.015625 77.203125 C-51.75687219 81.89485121 -52.67570711 86.83623666 -52.39453125 92.75 C-51.41724113 99.0771979 -48.30478856 103.80238375 -43.2890625 107.70703125 C-35.71268724 112.69285895 -27.5986564 116.22418089 -18.98046875 118.9296875 C-18.18033859 119.18130646 -17.38020844 119.43292542 -16.55583191 119.69216919 C-2.11943084 124.11198227 12.64300929 127.49038246 27.30102539 131.09326172 C110.19964314 151.49565595 110.19964314 151.49565595 132.08203125 185.01171875 C144.16139316 205.27627456 145.3489761 229.0279169 139.98046875 251.65625 C136.45865933 265.19240507 130.31429116 276.7311287 120.984375 287.203125 C120.33082031 287.95078125 119.67726563 288.6984375 119.00390625 289.46875 C101.83879084 307.88984946 76.60180226 316.74272519 52.484375 321.453125 C51.71593262 321.60418701 50.94749023 321.75524902 50.15576172 321.91088867 C32.94445795 325.02791028 15.74848385 325.57334092 -1.703125 325.515625 C-2.81925171 325.51413452 -3.93537842 325.51264404 -5.08532715 325.5111084 C-23.56042432 325.46689539 -41.69644031 324.72316701 -60.015625 322.203125 C-61.56491699 321.99429688 -61.56491699 321.99429688 -63.14550781 321.78125 C-80.97147727 319.27691868 -99.50703598 315.50745966 -116.015625 308.203125 C-116.03875135 299.6150678 -116.05654158 291.02702351 -116.06743717 282.43894291 C-116.07266536 278.451553 -116.07976184 274.46418433 -116.09106445 270.47680664 C-116.10189561 266.63187386 -116.10790232 262.78696155 -116.11050224 258.94201469 C-116.11235608 257.47193517 -116.11597591 256.00185682 -116.12135506 254.53178596 C-116.12856855 252.47958033 -116.12961581 250.42746033 -116.12915039 248.37524414 C-116.131371 247.20498184 -116.13359161 246.03471954 -116.13587952 244.82899475 C-116.015625 242.203125 -116.015625 242.203125 -115.015625 241.203125 C-108.53800503 241.65522433 -102.79064211 243.39232251 -96.640625 245.390625 C-63.84978489 255.65999204 -29.87518765 261.27526075 4.484375 261.453125 C6.3264856 261.46714355 6.3264856 261.46714355 8.20581055 261.48144531 C24.57780244 261.42406555 40.98822372 259.2300545 54.984375 250.203125 C55.891875 249.64625 56.799375 249.089375 57.734375 248.515625 C62.69239646 243.41988072 65.28055035 237.56757588 65.484375 230.453125 C65.09681124 223.71329661 63.00316886 219.97155341 58.234375 215.265625 C49.17351484 207.66432924 38.3634024 204.13788539 27.17578125 200.921875 C26.13752197 200.62135727 25.0992627 200.32083954 24.02954102 200.01121521 C10.43624201 196.12617759 -3.29723939 192.77579055 -17.02490234 189.40356445 C-54.22419138 180.24246811 -98.23653219 169.23249465 -119.83203125 134.26171875 C-130.69591521 113.81365647 -132.05317467 88.60156413 -125.44360352 66.55273438 C-121.00441984 52.76150608 -114.20384372 42.27235723 -104.015625 32.203125 C-103.36980469 31.54699219 -102.72398437 30.89085937 -102.05859375 30.21484375 C-76.36403502 5.86379136 -33.71432243 0.14126203 0 0 Z " fill="#FFFFFF" transform="translate(529.015625,101.796875)"/>
<path d="M0 0 C0.69933655 -0.00350464 1.3986731 -0.00700928 2.11920166 -0.01062012 C4.43633888 -0.01943969 6.75317205 -0.01358763 9.0703125 -0.00683594 C10.67692117 -0.00818253 12.28352945 -0.01012301 13.89013672 -0.01263428 C17.25947952 -0.01558584 20.62871637 -0.01128691 23.99804688 -0.00195312 C28.32270744 0.00944148 32.64711979 0.00288218 36.97177124 -0.00909805 C40.2899768 -0.01631581 43.60812325 -0.01402912 46.92633057 -0.00884247 C48.5211795 -0.00750574 50.11603375 -0.00915451 51.71087646 -0.01380157 C53.93760448 -0.0188655 56.16392726 -0.01115882 58.390625 0 C60.29352295 0.00238678 60.29352295 0.00238678 62.23486328 0.00482178 C65.1953125 0.25878906 65.1953125 0.25878906 67.1953125 2.25878906 C67.40136052 5.35431171 67.48035301 8.36142842 67.4737854 11.45877075 C67.4795778 12.42419796 67.4853702 13.38962517 67.49133813 14.38430774 C67.50842811 17.63953916 67.51122235 20.89462959 67.51416016 24.14990234 C67.52345213 26.47529451 67.53361969 28.80068332 67.54460144 31.12606812 C67.57199793 37.45631917 67.58707935 43.78654786 67.60002947 50.11684275 C67.61403997 56.05692777 67.63718095 61.99697111 67.66029982 67.93702661 C67.70580072 79.70458089 67.74240185 91.47214543 67.7734375 103.23974609 C67.80360956 114.67270714 67.83795362 126.10564306 67.87792969 137.53857422 C67.88039124 138.24297973 67.88285278 138.94738524 67.88538893 139.67313637 C67.89776327 143.20683616 67.91021985 146.74053565 67.92271733 150.27423501 C68.02633447 179.60238337 68.11537366 208.93056664 68.1953125 238.25878906 C69.76674163 238.27188529 71.33820304 238.28113636 72.90966797 238.28881836 C73.7847702 238.29439255 74.65987244 238.29996674 75.56149292 238.30570984 C79.54106078 238.23481492 83.39717973 237.71149511 87.3203125 237.07128906 C88.13798096 236.93819336 88.95564941 236.80509766 89.7980957 236.66796875 C119.18755957 231.57360507 147.02265741 216.39153685 164.62109375 191.92675781 C177.71280092 173.22360516 185.44916389 152.95930203 190.0078125 130.63378906 C190.30014771 129.20691772 190.30014771 129.20691772 190.59838867 127.7512207 C193.85458807 110.66657821 194.50232459 93.60174777 194.57421875 76.25488281 C194.59043986 74.11205827 194.60762446 71.96924083 194.62571716 69.82643127 C194.67088257 64.25272901 194.70597642 58.67901668 194.73791504 53.10522461 C194.79032044 44.12686041 194.85485947 35.14859875 194.92613029 26.17036629 C194.94894321 23.04265945 194.96520975 19.91496606 194.98085022 16.78721619 C194.99424571 14.8876835 195.00785953 12.98815234 195.02172852 11.08862305 C195.02434189 10.21864182 195.02695526 9.34866058 195.02964783 8.45231628 C195.08164997 2.48611412 195.08164997 2.48611412 196.1953125 0.25878906 C205.82643962 0.23566442 215.45755724 0.21787336 225.08870602 0.20697689 C229.56036799 0.20174833 234.03201103 0.19465117 238.50366211 0.18334961 C242.81543223 0.17251977 247.12718409 0.16651203 251.43896675 0.16391182 C253.08767548 0.16205774 254.73638316 0.15843746 256.38508415 0.15305901 C258.68635122 0.14584728 260.9875419 0.14479817 263.28881836 0.14526367 C265.25739052 0.14193275 265.25739052 0.14193275 267.26573181 0.13853455 C270.1953125 0.25878906 270.1953125 0.25878906 271.1953125 1.25878906 C271.30668884 4.1853221 271.35271876 7.08845919 271.35644531 10.01586914 C271.36141022 10.93664246 271.36637512 11.85741577 271.37149048 12.80609131 C271.38619116 15.88017516 271.39293716 18.95420693 271.3984375 22.02832031 C271.40419498 24.17941793 271.40995263 26.33051554 271.41571045 28.48161316 C271.42625115 33.01891315 271.4320696 37.55619533 271.43554688 42.09350586 C271.43988883 46.69710403 271.45360342 51.30051027 271.4765625 55.90405273 C271.8229977 126.73496721 262.70881454 199.31522348 211.57617188 252.81054688 C210.25505393 254.19613238 208.95129479 255.59820691 207.6484375 257.00097656 C170.89789521 295.42199805 116.84572389 310.88731317 65.02451324 312.31875229 C59.9072194 312.41474563 54.78992874 312.42429017 49.671875 312.42675781 C48.06668063 312.42998279 46.46148653 312.43334772 44.85629272 312.43684387 C41.53374548 312.44275906 38.21122399 312.44469101 34.88867188 312.4440918 C30.63069898 312.44398891 26.37288811 312.45780371 22.11495399 312.47486401 C18.81905347 312.48595212 15.52319312 312.48801223 12.22727585 312.48748207 C10.65557659 312.48866072 9.08387624 312.49307608 7.51219559 312.50081444 C5.33043853 312.51057882 3.14904772 312.50775407 0.96728516 312.50170898 C-0.27161469 312.503134 -1.51051453 312.50455902 -2.78695679 312.50602722 C-5.8046875 312.25878906 -5.8046875 312.25878906 -8.8046875 310.25878906 C-9.17958432 308.03778839 -9.17958432 308.03778839 -9.17941761 305.20812988 C-9.18662415 304.13249535 -9.1938307 303.05686081 -9.20125562 301.94863129 C-9.19388133 300.75740913 -9.18650705 299.56618698 -9.1789093 298.33886719 C-9.18288371 297.08083534 -9.18685811 295.8228035 -9.19095296 294.52664948 C-9.20158228 291.02325653 -9.19338362 287.52011713 -9.18220246 284.01673508 C-9.1733888 280.24299739 -9.18179572 276.46929392 -9.18806458 272.69555664 C-9.19757124 265.29828213 -9.19093646 257.9011049 -9.17880163 250.50383759 C-9.16520652 241.89700091 -9.16681728 233.29018762 -9.16893496 224.68334293 C-9.17212758 209.33086745 -9.16044154 193.97843831 -9.14086914 178.62597656 C-9.12186382 163.71450387 -9.11478125 148.8030855 -9.12036133 133.89160156 C-9.12641356 117.6703176 -9.12625227 101.44905755 -9.1148755 85.22777557 C-9.11366815 83.49942525 -9.11246217 81.77107493 -9.11125755 80.04272461 C-9.11065401 79.19225005 -9.11005048 78.34177548 -9.10942865 77.46552896 C-9.10554264 71.46017086 -9.10594576 65.45482164 -9.1078434 59.44946289 C-9.10996139 52.13511146 -9.10477142 44.8208077 -9.09022985 37.50646973 C-9.08296588 33.7715954 -9.07892578 30.03679065 -9.08347321 26.3019104 C-9.08827397 22.26077465 -9.07767255 18.21983078 -9.06538391 14.17871094 C-9.0710529 12.39187771 -9.0710529 12.39187771 -9.07683641 10.56894684 C-9.07100421 9.4933123 -9.06517202 8.41767776 -9.05916309 7.30944824 C-9.05829632 6.37566093 -9.05742954 5.44187363 -9.0565365 4.47978973 C-8.45120712 -0.85847636 -4.3774738 0.00549061 0 0 Z " fill="#FFFFFF" transform="translate(721.8046875,114.7412109375)"/>
<path d="M0 0 C4.28666017 0.00768061 8.57330258 0.0005299 12.85996366 -0.0041585 C20.03699637 -0.00958305 27.21393577 -0.00250264 34.39095426 0.01186323 C42.68696099 0.0282771 50.9827475 0.02282515 59.27874917 0.00638402 C66.42731431 -0.00721422 73.57581311 -0.0091615 80.72438699 -0.00129998 C84.98373183 0.00337374 89.24297284 0.00400778 93.50231099 -0.00590944 C97.49245601 -0.01455587 101.48231458 -0.00860029 105.47242856 0.00877333 C106.93699344 0.01274665 108.40158236 0.01158969 109.86613774 0.00498533 C111.86096845 -0.00318364 113.85585177 0.0088657 115.85065579 0.02202559 C116.96753498 0.02315666 118.08441417 0.02428774 119.23513818 0.02545309 C121.97469449 0.40297651 121.97469449 0.40297651 123.82888246 1.7510047 C125.67650055 4.41480376 125.42805361 6.24108724 124.97469449 9.40297651 C123.17391324 12.34047651 123.17391324 12.34047651 120.66219449 15.40297651 C120.21287564 15.96057661 119.7635568 16.51817671 119.30062222 17.09267378 C118.34880066 18.27360405 117.39138545 19.4500449 116.42879605 20.62221479 C114.55065706 22.92227286 112.72292294 25.25956669 110.89583707 27.60024214 C109.52199563 29.35994416 108.14188508 31.11454733 106.75985074 32.86782026 C103.99467764 36.37682976 101.23428006 39.88957209 98.47469449 43.40297651 C97.55804939 44.56966013 96.64138272 45.73632679 95.72469449 46.90297651 C95.27094449 47.48047651 94.81719449 48.05797651 94.34969449 48.65297651 C92.97469449 50.40297651 91.59969449 52.15297651 90.22469449 53.90297651 C89.77029996 54.48136274 89.31590543 55.05974897 88.84774137 55.65566206 C87.93784424 56.81358057 87.02769108 57.97129794 86.11727262 59.12880659 C83.71981282 62.17765655 81.32787513 65.2306415 78.94344449 68.28969526 C78.4465109 68.92584761 77.9495773 69.56199995 77.43758512 70.21742964 C76.48671848 71.4348944 75.53741108 72.65357913 74.58992887 73.87367964 C73.4000092 75.39542098 72.18842843 76.90016067 70.97469449 78.40297651 C70.56821179 78.9494232 70.1617291 79.49586988 69.74292874 80.05887556 C67.03567381 82.11676123 64.73224467 81.77455311 61.37044644 81.771873 C60.70320554 81.77563948 60.03596463 81.77940596 59.3485043 81.78328657 C57.89822981 81.78972253 56.44791315 81.78938569 54.99763799 81.78310156 C52.68658109 81.77396592 50.37633169 81.78424921 48.06531644 81.79972029 C41.49402536 81.83970789 34.92279603 81.84105017 28.35140347 81.83876753 C24.32770032 81.83871576 20.30442304 81.85822353 16.2808373 81.8881011 C14.03210794 81.8987431 11.78426056 81.88689669 9.5355618 81.87427473 C-9.90505419 81.92150578 -27.46219531 87.59327368 -42.26749301 100.60219526 C-49.72027399 108.17109606 -55.47667021 117.37872935 -59.02530551 127.40297651 C-59.27133014 128.08854628 -59.51735476 128.77411604 -59.77083468 129.48046064 C-62.57166376 138.3036668 -62.48052222 147.00574011 -62.45889926 156.15297651 C-62.46347113 157.85968433 -62.46877966 159.56639032 -62.47478366 161.2730937 C-62.48367059 164.83339161 -62.48134166 168.39346466 -62.47135043 171.95375776 C-62.45985479 176.48934976 -62.48010375 181.02416382 -62.50926757 185.55965376 C-62.52771475 189.07896964 -62.52732045 192.59810189 -62.52163005 196.11745405 C-62.52147794 197.78860775 -62.52743005 199.45977477 -62.53992152 201.13088179 C-62.63746312 216.31289591 -60.03928186 226.86770996 -49.40421176 238.11782026 C-41.14565565 245.90106379 -31.11588848 248.54716329 -20.09757113 248.56069136 C-18.74570964 248.56831244 -18.74570964 248.56831244 -17.36653781 248.57608747 C-15.41151022 248.58677886 -13.45647049 248.59540386 -11.5014255 248.60220671 C-8.408287 248.61400275 -5.31528767 248.63345591 -2.22220492 248.65532637 C6.57140866 248.71693044 15.36500652 248.77104798 24.15877652 248.8043437 C29.53865613 248.82526186 34.91827954 248.86053778 40.29801297 248.9051013 C42.34891619 248.91927946 44.39986471 248.92798782 46.45081449 248.93115568 C49.31647028 248.93605195 52.18144267 248.95917526 55.04696012 248.98647261 C56.32039021 248.98196341 56.32039021 248.98196341 57.61954618 248.97736311 C60.93949937 249.02444388 63.42762203 249.16968977 66.50132108 250.48039961 C68.770866 253.44188555 68.47593742 255.88789318 68.47640347 259.58071089 C68.48450795 260.67141638 68.48450795 260.67141638 68.49277616 261.78415632 C68.50528801 264.18875991 68.48875745 266.59217185 68.47078824 268.99672651 C68.47094317 270.6667711 68.47243119 272.33681605 68.47519803 274.00685835 C68.47658312 277.5073862 68.46400604 281.00750485 68.44124722 284.50795698 C68.41286199 288.99740181 68.41559831 293.4861666 68.42833734 297.97566175 C68.43528881 301.42433698 68.42751138 304.87285472 68.41508031 308.32150984 C68.41056061 309.97692972 68.41023353 311.63236648 68.41414571 313.28778791 C68.4170528 315.60062579 68.40057636 317.91252305 68.37874722 320.22524214 C68.37334424 321.54189863 68.36794126 322.85855513 68.36237454 324.2151103 C67.97469449 327.40297651 67.97469449 327.40297651 66.82498765 329.07798815 C64.17854475 330.97309652 62.22084907 330.7834455 58.98232388 330.79065657 C57.72934003 330.8005612 56.47635617 330.81046583 55.18540311 330.8206706 C53.79387687 330.81643206 52.40235157 330.81187415 51.0108273 330.80702925 C49.54705144 330.81273116 48.08328003 330.81969472 46.61951566 330.82782698 C42.6373444 330.84581128 38.65539293 330.84457802 34.67319322 330.83888459 C31.34161529 330.83579473 28.01007971 330.84188422 24.6785078 330.84792334 C16.80503304 330.86198948 8.93166666 330.86039509 1.05819058 330.84902143 C-7.03452575 330.83758843 -15.12690881 330.8515294 -23.21958113 330.87841791 C-30.18374862 330.90068136 -37.14781236 330.907187 -44.11201286 330.9013415 C-48.26357822 330.8979899 -52.41493098 330.90026369 -56.56646609 330.91759253 C-60.48346264 330.93322566 -64.39997397 330.92892801 -68.31695247 330.91028738 C-69.74260444 330.90664357 -71.16829362 330.90958454 -72.59391093 330.92017317 C-93.30300915 331.06204328 -111.10243854 324.14564414 -125.98624301 309.46938276 C-139.65078891 294.641262 -144.33524518 277.22411988 -144.29996371 257.60219526 C-144.30431615 256.00137804 -144.30950107 254.40056289 -144.31545138 252.7997508 C-144.32880215 248.46662018 -144.32942394 244.133577 -144.32688808 239.80042982 C-144.32581471 236.17046493 -144.33071159 232.54051746 -144.33549351 228.91055632 C-144.34657728 220.3346114 -144.34703386 211.75871028 -144.34097934 203.18276167 C-144.33495354 194.37145704 -144.34721761 185.56031266 -144.36854941 176.74903536 C-144.38624507 169.15716909 -144.39215389 161.56535344 -144.38891166 153.97346735 C-144.38710973 149.45142145 -144.38962402 144.92948961 -144.4036262 140.4074626 C-144.41632854 136.14575534 -144.41414505 131.88429461 -144.40121531 127.62259054 C-144.39887588 126.07157315 -144.40148775 124.52053775 -144.40983844 122.96954107 C-144.57481081 89.9039091 -131.41796341 59.68913125 -108.59903598 35.91713667 C-95.06022772 22.27600832 -78.37175072 12.45802818 -60.27530551 6.15297651 C-59.62199252 5.9186894 -58.96867953 5.68440229 -58.29556918 5.44301558 C-39.3790527 -0.78578423 -19.64178749 -0.04627163 0 0 Z " fill="#50CD95" transform="translate(144.02530550956726,36.597023487091064)"/>
<path d="M0 0 C1.84377983 -0.01268921 1.84377983 -0.01268921 3.72480774 -0.02563477 C5.08958567 -0.01980131 6.4543623 -0.01365677 7.81913757 -0.00723267 C9.25497843 -0.01129759 10.69081616 -0.01663902 12.12664795 -0.02316284 C16.0323221 -0.03686536 19.93775902 -0.03152223 23.84343743 -0.02202559 C27.93952589 -0.01442805 32.03559409 -0.02147635 36.13168335 -0.02618408 C43.02265558 -0.03164815 49.91353152 -0.02444008 56.80448914 -0.01016235 C64.74153669 0.00609427 72.67835221 0.00092949 80.61539394 -0.01564157 C87.44451149 -0.02932333 94.27355973 -0.0311415 101.10268658 -0.02332556 C105.17425301 -0.0186764 109.24571106 -0.01794599 113.31727028 -0.02793503 C117.15787204 -0.03669758 120.99818029 -0.03041626 124.83875084 -0.01325226 C126.23740531 -0.00933329 127.63608509 -0.01034111 129.034729 -0.01704025 C150.95142331 -0.11221012 168.44289553 6.04119308 184.36479187 21.19345093 C198.92931436 36.31193307 203.42077222 53.74335358 203.40531921 74.13998413 C203.41131272 75.72460748 203.41812014 77.30922793 203.42567444 78.8938446 C203.44326863 83.17965759 203.44802733 87.46539058 203.44930601 91.7512362 C203.45073313 94.43880738 203.45501353 97.12635859 203.46030045 99.81392479 C203.47878652 109.2191737 203.48697378 118.6243661 203.48539734 128.02963257 C203.48419978 136.74719381 203.50522973 145.46450594 203.53688467 154.18200427 C203.5632037 161.70261762 203.57375798 169.22315047 203.57248652 176.7438094 C203.57198099 181.21906407 203.57743291 185.69409768 203.59884262 190.1693058 C203.78243388 231.43501201 196.79814961 264.81298981 167.11479187 295.38095093 C144.89759829 317.6680099 115.06871394 330.59828762 83.55361938 330.65200806 C82.09858648 330.64812153 80.64355412 330.64402532 79.18852234 330.63973999 C77.62351316 330.64245615 76.05850527 330.64602056 74.49349976 330.65036011 C70.28136804 330.65940458 66.0693353 330.655975 61.85720205 330.64960194 C57.43924808 330.6445095 53.02130211 330.64924152 48.60334778 330.65237427 C41.1979674 330.65600069 33.79262709 330.6512457 26.38725281 330.64169312 C17.82100836 330.63077085 9.25485885 330.63436669 0.68861663 330.64534593 C-6.67720896 330.65440873 -14.04300593 330.65571024 -21.40883529 330.65046859 C-25.80403254 330.64734849 -30.19918504 330.64694145 -34.59437943 330.65354156 C-38.71652647 330.65930114 -42.83855016 330.65534386 -46.96068382 330.64375305 C-48.47565569 330.64110072 -49.99063789 330.64188128 -51.5056057 330.64627838 C-53.56694364 330.65171184 -55.62788155 330.64492753 -57.68919373 330.63491821 C-58.84428499 330.63416416 -59.99937626 330.63341011 -61.18947029 330.63263321 C-63.88520813 330.38095093 -63.88520813 330.38095093 -65.88520813 328.38095093 C-66.4661169 323.99482323 -66.21943225 321.91945904 -63.86567688 318.12704468 C-62.95137363 317.01030771 -62.01925518 315.90799238 -61.07270813 314.81845093 C-60.05533334 313.58835232 -59.03841894 312.35787282 -58.02192688 311.12704468 C-57.4990509 310.50555542 -56.97617493 309.88406616 -56.43745422 309.2437439 C-54.01936568 306.34188551 -51.70581368 303.36087185 -49.38520813 300.38095093 C-48.4690958 299.21384892 -47.55242744 298.04718317 -46.63520813 296.88095093 C-45.95458313 296.01470093 -45.95458313 296.01470093 -45.26020813 295.13095093 C-40.21854146 288.71428426 -35.1768748 282.29761759 -30.13520813 275.88095093 C-29.6808136 275.30248413 -29.22641907 274.72401733 -28.758255 274.12802124 C-27.84867455 272.97066744 -26.93852544 271.81376031 -26.02778625 270.65731812 C-23.62265697 267.60173421 -21.2301725 264.53721551 -18.85395813 261.45907593 C-18.35702454 260.81841187 -17.86009094 260.1777478 -17.34809875 259.51766968 C-16.39522229 258.2887262 -15.44581859 257.05707969 -14.5004425 255.82235718 C-12.42290459 253.14990211 -10.72977849 251.27733117 -7.88520813 249.38095093 C-4.84729004 249.12939453 -4.84729004 249.12939453 -1.06562805 249.12557983 C-0.37566742 249.12195938 0.31429321 249.11833893 1.02516174 249.11460876 C2.5245513 249.10771523 4.02396594 249.10520925 5.52337074 249.10655594 C7.90937698 249.10752359 10.29493553 249.09454545 12.68087769 249.07757568 C19.4653716 249.03141446 26.24982411 249.00675975 33.0344696 249.00009155 C37.18786466 248.99502585 41.34080092 248.97051075 45.49403954 248.93476486 C47.06498625 248.9250699 48.635997 248.92257758 50.20696449 248.92793655 C70.12968737 248.99262534 87.39905583 243.38962458 102.11479187 229.38095093 C117.1251337 213.61298932 121.76747645 195.6522502 121.64604187 174.55673218 C121.6487454 172.87673214 121.65263492 171.19673365 121.65763855 169.51673889 C121.66348836 166.02137128 121.65511524 162.52641649 121.63627625 159.03109741 C121.61343565 154.57962781 121.62667045 150.12912057 121.6505661 145.67768574 C121.66510201 142.21754354 121.66038357 138.75762519 121.65005493 135.29747581 C121.64741187 133.65703399 121.65057081 132.01657096 121.65997314 130.37615395 C121.72317921 116.26159199 119.43979207 104.36049659 109.52494812 93.66610718 C100.32335882 85.15734342 89.05225467 82.07190594 76.80888367 82.10971069 C75.46836693 82.10187057 75.46836693 82.10187057 74.10076904 82.09387207 C72.17473783 82.08368717 70.24867953 82.07786136 68.3226223 82.07599068 C65.27558017 82.07231077 62.22885874 82.05554346 59.18188477 82.03523254 C50.52408285 81.97994919 41.86623614 81.9490375 33.20829773 81.9246521 C27.90163402 81.90880842 22.59520331 81.87863547 17.28866005 81.83988762 C15.26762672 81.8282222 13.24655184 81.82230714 11.22548485 81.8222065 C8.40798299 81.82201517 5.59112899 81.80380568 2.77372742 81.78158569 C1.93681366 81.78616287 1.0998999 81.79074005 0.23762512 81.79545593 C-5.44149129 81.72398907 -5.44149129 81.72398907 -7.59887409 80.05611324 C-9.71087234 77.30570801 -9.26722328 74.60601156 -9.27339172 71.20321655 C-9.27864868 70.47607956 -9.28390564 69.74894257 -9.2893219 68.99977112 C-9.30252954 66.59536277 -9.29378152 64.19161605 -9.28364563 61.78720093 C-9.28566616 60.11715569 -9.28857741 58.44711131 -9.29234314 56.77706909 C-9.29676751 53.27661745 -9.29033191 49.77639542 -9.27632141 46.27597046 C-9.25922932 41.78654961 -9.26906992 37.29766679 -9.2870388 32.80826569 C-9.29787366 29.35960834 -9.2944317 25.91107878 -9.28665543 22.4624176 C-9.28465259 20.80699093 -9.28711564 19.1515527 -9.29409409 17.49613953 C-9.30170385 15.18334167 -9.29011201 12.87141796 -9.27339172 10.5586853 C-9.27100494 9.24202881 -9.26861816 7.92537231 -9.26615906 6.56881714 C-8.88520813 3.38095093 -8.88520813 3.38095093 -7.72922421 1.70551872 C-5.11076904 -0.17533331 -3.20824959 0.00338994 0 0 Z " fill="#50CD95" transform="translate(132.8852081298828,160.61904907226563)"/>
<path d="M0 0 C7.74869035 6.97515499 11.64683761 14.56314529 12.9375 24.875 C13.46623703 35.17215372 10.67344156 44.13108932 4 52 C-3.41378374 60.03558495 -12.05394548 63.53590542 -22.91796875 64.09375 C-34.25404856 63.74892628 -43.06593933 59.37404139 -50.8125 51.25 C-57.1896323 43.54121594 -59.65972028 33.87797391 -59 24 C-57.84077611 13.47196666 -52.40256284 5.38755237 -44.3671875 -1.30859375 C-30.54759755 -11.18298723 -13.28965129 -9.99398897 0 0 Z " fill="#50CD95" transform="translate(1988,363)"/>
</svg>
